<svg width="24" height="25" viewBox="0 0 24 25" fill="none" xmlns="http://www.w3.org/2000/svg">
<path fill-rule="evenodd" clip-rule="evenodd" d="M12 3.5C11.4477 3.5 11 3.94772 11 4.5V10.5C11 11.0523 11.4477 11.5 12 11.5C12.5523 11.5 13 11.0523 13 10.5V4.5C13 3.94772 12.5523 3.5 12 3.5ZM17.6569 7.84314C17.2663 7.45262 16.6332 7.45262 16.2426 7.84315C15.8521 8.23367 15.8521 8.86683 16.2426 9.25736C17.0818 10.0965 17.6532 11.1656 17.8847 12.3295C18.1162 13.4933 17.9974 14.6997 17.5433 15.7961C17.0892 16.8925 16.3201 17.8295 15.3334 18.4888C14.3467 19.1481 13.1867 19.5 12 19.5C10.8133 19.5 9.65328 19.1481 8.66659 18.4888C7.67989 17.8295 6.91086 16.8925 6.45673 15.7961C6.0026 14.6998 5.88378 13.4934 6.11529 12.3295C6.3468 11.1656 6.91824 10.0965 7.75736 9.25737C8.14788 8.86684 8.14788 8.23368 7.75735 7.84315C7.36683 7.45263 6.73366 7.45263 6.34314 7.84315C5.22432 8.96198 4.4624 10.3874 4.15372 11.9393C3.84504 13.4911 4.00347 15.0997 4.60897 16.5615C5.21447 18.0233 6.23985 19.2727 7.55545 20.1518C8.87104 21.0308 10.4178 21.5 12 21.5C13.5823 21.5 15.129 21.0308 16.4446 20.1518C17.7602 19.2727 18.7855 18.0233 19.391 16.5615C19.9965 15.0997 20.155 13.4911 19.8463 11.9393C19.5376 10.3874 18.7757 8.96196 17.6569 7.84314Z" fill="#6316DB"/>
</svg>
