<svg width="24" height="25" viewBox="0 0 24 25" fill="none" xmlns="http://www.w3.org/2000/svg">
<path fill-rule="evenodd" clip-rule="evenodd" d="M4 7.5C4 6.94772 4.44772 6.5 5 6.5H19C19.5523 6.5 20 6.94772 20 7.5C20 8.05228 19.5523 8.5 19 8.5H5C4.44772 8.5 4 8.05228 4 7.5ZM4 12.5C4 11.9477 4.44772 11.5 5 11.5H19C19.5523 11.5 20 11.9477 20 12.5C20 13.0523 19.5523 13.5 19 13.5H5C4.44772 13.5 4 13.0523 4 12.5ZM5 16.5C4.44772 16.5 4 16.9477 4 17.5C4 18.0523 4.44772 18.5 5 18.5H19C19.5523 18.5 20 18.0523 20 17.5C20 16.9477 19.5523 16.5 19 16.5H5Z" fill="#837C9F"/>
</svg>
