<svg width="24" height="25" viewBox="0 0 24 25" fill="none" xmlns="http://www.w3.org/2000/svg">
<path fill-rule="evenodd" clip-rule="evenodd" d="M8 7.5C8 9.70914 9.79086 11.5 12 11.5C14.2091 11.5 16 9.70914 16 7.5C16 5.29086 14.2091 3.5 12 3.5C9.79086 3.5 8 5.29086 8 7.5ZM14 7.5C14 8.60457 13.1046 9.5 12 9.5C10.8954 9.5 10 8.60457 10 7.5C10 6.39543 10.8954 5.5 12 5.5C13.1046 5.5 14 6.39543 14 7.5ZM13 16.5C13 18.7091 14.7909 20.5 17 20.5C19.2091 20.5 21 18.7091 21 16.5C21 14.2909 19.2091 12.5 17 12.5C14.7909 12.5 13 14.2909 13 16.5ZM19 16.5C19 17.6046 18.1046 18.5 17 18.5C15.8954 18.5 15 17.6046 15 16.5C15 15.3954 15.8954 14.5 17 14.5C18.1046 14.5 19 15.3954 19 16.5ZM7 20.5C4.79086 20.5 3 18.7091 3 16.5C3 14.2909 4.79086 12.5 7 12.5C9.20914 12.5 11 14.2909 11 16.5C11 18.7091 9.20914 20.5 7 20.5ZM7 18.5C8.10457 18.5 9 17.6046 9 16.5C9 15.3954 8.10457 14.5 7 14.5C5.89543 14.5 5 15.3954 5 16.5C5 17.6046 5.89543 18.5 7 18.5Z" fill="#837C9F"/>
</svg>
