<svg width="24" height="25" viewBox="0 0 24 25" fill="none" xmlns="http://www.w3.org/2000/svg">
<path d="M16.7883 20.9592L17.3795 20.2018C21.117 15.4138 23 11.9617 23 9.5C23 5.63401 19.866 2.5 16 2.5C12.134 2.5 9 5.63401 9 9.5C9 11.9617 10.883 15.4138 14.6205 20.2018L15.2117 20.9592C15.6121 21.4721 16.3879 21.4721 16.7883 20.9592Z" fill="#837C9F"/>
<path d="M8.5935 15.787L7.49326 13.798C7.46166 13.8445 7.42633 13.8969 7.38755 13.9544C7.08534 14.4024 6.57393 15.1606 5.9903 15.9039C3.99067 13.3777 3 11.5318 3 10.5C3 8.84315 4.34315 7.5 6 7.5C6.25046 7.5 6.49606 7.53048 6.73348 7.59007L7.22038 5.65024C6.82407 5.55077 6.41494 5.5 6 5.5C3.23858 5.5 1 7.73858 1 10.5C1 12.2878 2.4194 14.7718 5.23238 18.1409C5.63739 18.626 6.38522 18.6185 6.78038 18.1253C7.47382 17.2599 8.23043 16.2686 8.5935 15.787Z" fill="#837C9F"/>
</svg>
