<svg width="16" height="17" viewBox="0 0 16 17" fill="none" xmlns="http://www.w3.org/2000/svg">
<path fill-rule="evenodd" clip-rule="evenodd" d="M2 0.960938C0.895431 0.960938 0 1.85637 0 2.96094V11.9609C0 12.5132 0.447715 12.9609 1 12.9609C1.55228 12.9609 2 12.5132 2 11.9609V2.96094H11C11.5523 2.96094 12 2.51322 12 1.96094C12 1.40865 11.5523 0.960938 11 0.960938H2ZM4 6.96094C4 5.85637 4.89543 4.96094 6 4.96094H14C15.1046 4.96094 16 5.85637 16 6.96094V14.9609C16 16.0655 15.1046 16.9609 14 16.9609H6C4.89543 16.9609 4 16.0655 4 14.9609V6.96094ZM6 6.96094H14V14.9609H6V6.96094Z" fill="#1A0244"/>
</svg>
